Coordinates
version=1
nRows=10
nColumns=33
inDegrees=yes

Units are S.I. units (second, meters, Newtons, ...)
Angles are in degrees.

endheader
time	ground_thorax_rot_x	ground_thorax_rot_y	ground_thorax_rot_z	ground_thorax_tx	ground_thorax_ty	ground_thorax_tz	clav_prot_r	clav_elev_r	scapula_abduction_r	scapula_elevation_r	scapula_upward_rot_r	scapula_winging_r	shoulder_elv_r	plane_of_elev_r	axial_rot_r	elbow_flexion_r	pro_sup_r	wrist_flex_r	wrist_dev_r	clav_prot_l	clav_elev_l	scapula_abduction_l	scapula_elevation_l	scapula_upward_rot_l	scapula_winging_l	shoulder_elv_l	plane_of_elev_l	axial_rot_l	elbow_flexion_l	pro_sup_l	wrist_flex_l	wrist_dev_l
      8.28000000	     28.10251706	     29.31710216	     36.07418874	    -79.93289724	    772.10123807	     10.16204720	     14.63817529	     45.00000000	     45.00000000	     40.44420061	     45.00000000	  -3271.35320721	  -1238.55969681	    -90.00000000	    -88.47104809	   2154.98634455	   -101.17497514	     19.05640794	     11.67242707	     11.66063548	    -45.00000000	    -41.57366284	     45.00000000	    -45.00000000	   2249.90746300	  -2091.85828688	     19.68475974	    -55.55766676	   1448.20174649	     30.00440000	      7.82144581	    -19.05361869
      8.29000000	     28.21464257	     29.32170089	     35.92331340	    -81.25787471	    772.36588211	     10.05341937	     14.63807957	     45.00000000	     45.00000000	     40.55254602	     45.00000000	  -3271.27331694	  -1238.41926408	    -90.00000000	    -88.59653332	   2155.09228144	   -101.38657828	     19.08048669	     11.74538204	     11.66255875	    -45.00000000	    -41.58571202	     45.00000000	    -45.00000000	   2250.05227151	  -2091.78430231	     19.73898779	    -55.57251006	   1448.42160637	     30.01361556	      7.77096893	    -19.12965941
      8.30000000	     28.30754072	     29.41985158	     35.88938643	    -82.65054260	    772.67071833	      9.93861478	     14.64187719	     45.00000000	     45.00000000	     40.77221804	     45.00000000	  -3271.27682718	  -1238.29719358	    -90.00000000	    -88.70300946	   2155.21176570	   -101.61661329	     19.10280166	     11.81759137	     11.67994015	    -45.00000000	    -41.56886303	     45.00000000	    -45.00000000	   2250.12950821	  -2091.76238015	     19.69688153	    -55.49424105	   1448.48252568	     30.03657518	      7.72605517	    -19.16973888
      8.31000000	     28.42219254	     29.44947747	     35.76519489	    -84.11371215	    773.02279205	      9.81885872	     14.64023854	     45.00000000	     45.00000000	     40.95128530	     45.00000000	  -3271.24185491	  -1238.16799492	    -90.00000000	    -88.81656852	   2155.33376641	   -101.86583520	     19.17777876	     11.91517006	     11.67780298	    -45.00000000	    -41.59371551	     45.00000000	    -45.00000000	   2250.27076351	  -2091.72332193	     19.75147591	    -55.43659138	   1448.58520336	     30.05981010	      7.65850201	    -19.21518193
      8.32000000	     28.55401234	     29.45799460	     35.61311906	    -85.64484078	    773.42786752	      9.69571764	     14.64426829	     45.00000000	     45.00000000	     41.11866277	     45.00000000	  -3271.20170895	  -1238.06082523	    -90.00000000	    -88.90832633	   2155.44272129	   -102.12038083	     19.21939895	     12.00469618	     11.68523959	    -45.00000000	    -41.55800216	     45.00000000	    -45.00000000	   2250.38594417	  -2091.63194816	     19.79682381	    -55.36559701	   1448.72170863	     30.08493179	      7.58075401	    -19.27104720
      8.33000000	     28.68397210	     29.52705758	     35.50966483	    -87.24119414	    773.89094825	      9.57038562	     14.64523903	     45.00000000	     45.00000000	     41.34117129	     45.00000000	  -3271.17134245	  -1237.97981371	    -90.00000000	    -88.97362974	   2155.52387709	   -102.39728361	     19.26811384	     12.09184539	     11.70270676	    -45.00000000	    -41.58473993	     45.00000000	    -45.00000000	   2250.49627079	  -2091.58097770	     19.80618047	    -55.29701282	   1448.81952271	     30.12571750	      7.50613247	    -19.32025809
      8.34000000	     28.83308481	     29.55732307	     35.36590229	    -88.90140779	    774.41619849	      9.44336717	     14.64668508	     45.00000000	     45.00000000	     41.54206191	     45.00000000	  -3271.13073330	  -1237.92371738	    -90.00000000	    -89.01393612	   2155.60063641	   -102.68506279	     19.32042452	     12.18900750	     11.72054354	    -45.00000000	    -41.56766880	     45.00000000	    -45.00000000	   2250.60851779	  -2091.50398051	     19.84035930	    -55.21469258	   1448.92436280	     30.17113722	      7.40885716	    -19.36775725
      8.35000000	     29.00427012	     29.54750791	     35.13726425	    -90.62782090	    775.00774703	      9.31462373	     14.64769313	     45.00000000	     45.00000000	     41.70110488	     45.00000000	  -3271.05637761	  -1237.87475528	    -90.00000000	    -89.04754382	   2155.66772726	   -102.98410135	     19.39793982	     12.29880939	     11.72128941	    -45.00000000	    -41.56947065	     45.00000000	    -45.00000000	   2250.76798790	  -2091.38459911	     19.95930728	    -55.12951620	   1449.08168915	     30.21651550	      7.29387262	    -19.42414105
      8.36000000	     29.18068875	     29.58475251	     34.96074365	    -92.42045186	    775.66733872	      9.18446125	     14.64575104	     45.00000000	     45.00000000	     41.94307918	     45.00000000	  -3271.03685696	  -1237.85033148	    -90.00000000	    -89.05648127	   2155.69793664	   -103.30767499	     19.45684798	     12.39339195	     11.74721933	    -45.00000000	    -41.62899030	     45.00000000	    -45.00000000	   2250.90214338	  -2091.29876342	     19.99808575	    -55.07393278	   1449.23470297	     30.28152597	      7.19468597	    -19.48751909
      8.37000000	     29.36462841	     29.61855367	     34.78031667	    -94.28418212	    776.39682514	      9.05313840	     14.64475404	     45.00000000	     45.00000000	     42.19763100	     45.00000000	  -3271.02903428	  -1237.86327141	    -90.00000000	    -89.02795746	   2155.71021962	   -103.64530621	     19.52034934	     12.49675017	     11.76552435	    -45.00000000	    -41.65687666	     45.00000000	    -45.00000000	   2251.02287594	  -2091.20145705	     20.03020629	    -54.98630655	   1449.36909721	     30.35254571	      7.07781332	    -19.54366171
